<mxfile host="Electron" modified="2024-05-28T05:53:15.931Z" agent="Mozilla/5.0 (Macintosh; Intel Mac OS X 10.15; rv:126.0) Gecko/20100101 Firefox/126.0" etag="VqbFJLo7rNzjzkSICCp3" version="21.7.4" type="device">
  <diagram name="Page-1" id="F9or5GQ9XItE_AyRXgZM">
    <mxGraphModel dx="3910" dy="767" grid="1" gridSize="10" guides="1" tooltips="1" connect="1" arrows="1" fold="1" page="1" pageScale="1" pageWidth="2336" pageHeight="1654" math="0" shadow="0">
      <root>
        <mxCell id="0" />
        <mxCell id="1" parent="0" />
        <mxCell id="WcB3qR7SCc_YL2CJhBid-1" value="Account" style="points=[[0,0],[0.25,0],[0.5,0],[0.75,0],[1,0],[1,0.25],[1,0.5],[1,0.75],[1,1],[0.75,1],[0.5,1],[0.25,1],[0,1],[0,0.75],[0,0.5],[0,0.25]];outlineConnect=0;gradientColor=none;html=1;whiteSpace=wrap;fontSize=12;fontStyle=0;container=1;pointerEvents=0;collapsible=0;recursiveResize=0;shape=mxgraph.aws4.group;grIcon=mxgraph.aws4.group_aws_cloud_alt;strokeColor=#232F3E;fillColor=none;verticalAlign=top;align=left;spacingLeft=30;fontColor=#232F3E;dashed=0;" parent="1" vertex="1">
          <mxGeometry x="160" y="200" width="940" height="600" as="geometry" />
        </mxCell>
        <mxCell id="WcB3qR7SCc_YL2CJhBid-3" value="Region" style="points=[[0,0],[0.25,0],[0.5,0],[0.75,0],[1,0],[1,0.25],[1,0.5],[1,0.75],[1,1],[0.75,1],[0.5,1],[0.25,1],[0,1],[0,0.75],[0,0.5],[0,0.25]];outlineConnect=0;gradientColor=none;html=1;whiteSpace=wrap;fontSize=12;fontStyle=0;container=1;pointerEvents=0;collapsible=0;recursiveResize=0;shape=mxgraph.aws4.group;grIcon=mxgraph.aws4.group_region;strokeColor=#147EBA;fillColor=none;verticalAlign=top;align=left;spacingLeft=30;fontColor=#147EBA;dashed=1;" parent="WcB3qR7SCc_YL2CJhBid-1" vertex="1">
          <mxGeometry x="40" y="40" width="860" height="520" as="geometry" />
        </mxCell>
        <mxCell id="WcB3qR7SCc_YL2CJhBid-30" style="edgeStyle=orthogonalEdgeStyle;rounded=0;orthogonalLoop=1;jettySize=auto;html=1;" parent="WcB3qR7SCc_YL2CJhBid-3" source="WcB3qR7SCc_YL2CJhBid-5" target="WcB3qR7SCc_YL2CJhBid-7" edge="1">
          <mxGeometry relative="1" as="geometry">
            <Array as="points">
              <mxPoint x="99" y="200" />
              <mxPoint x="629" y="200" />
            </Array>
          </mxGeometry>
        </mxCell>
        <mxCell id="WcB3qR7SCc_YL2CJhBid-31" value="trigger scheduled processing" style="edgeLabel;html=1;align=center;verticalAlign=middle;resizable=0;points=[];" parent="WcB3qR7SCc_YL2CJhBid-30" vertex="1" connectable="0">
          <mxGeometry x="0.2097" y="-2" relative="1" as="geometry">
            <mxPoint y="-2" as="offset" />
          </mxGeometry>
        </mxCell>
        <mxCell id="WcB3qR7SCc_YL2CJhBid-5" value="Amazon EventBridge Scheduler" style="sketch=0;outlineConnect=0;fontColor=#232F3E;gradientColor=none;fillColor=#E7157B;strokeColor=none;dashed=0;verticalLabelPosition=bottom;verticalAlign=top;align=center;html=1;fontSize=12;fontStyle=0;aspect=fixed;pointerEvents=1;shape=mxgraph.aws4.eventbridge_scheduler;" parent="WcB3qR7SCc_YL2CJhBid-3" vertex="1">
          <mxGeometry x="60" y="46" width="78" height="78" as="geometry" />
        </mxCell>
        <mxCell id="WcB3qR7SCc_YL2CJhBid-35" style="edgeStyle=orthogonalEdgeStyle;rounded=0;orthogonalLoop=1;jettySize=auto;html=1;entryX=0.078;entryY=0.498;entryDx=0;entryDy=0;entryPerimeter=0;" parent="WcB3qR7SCc_YL2CJhBid-3" source="WcB3qR7SCc_YL2CJhBid-7" target="WcB3qR7SCc_YL2CJhBid-33" edge="1">
          <mxGeometry relative="1" as="geometry" />
        </mxCell>
        <mxCell id="WcB3qR7SCc_YL2CJhBid-7" value="Amazon Simple Queue Service&lt;br&gt;Engine Queue" style="sketch=0;points=[[0,0,0],[0.25,0,0],[0.5,0,0],[0.75,0,0],[1,0,0],[0,1,0],[0.25,1,0],[0.5,1,0],[0.75,1,0],[1,1,0],[0,0.25,0],[0,0.5,0],[0,0.75,0],[1,0.25,0],[1,0.5,0],[1,0.75,0]];outlineConnect=0;fontColor=#232F3E;fillColor=#E7157B;strokeColor=#ffffff;dashed=0;verticalLabelPosition=bottom;verticalAlign=top;align=center;html=1;fontSize=12;fontStyle=0;aspect=fixed;shape=mxgraph.aws4.resourceIcon;resIcon=mxgraph.aws4.sqs;" parent="WcB3qR7SCc_YL2CJhBid-3" vertex="1">
          <mxGeometry x="590" y="234.89" width="78" height="78" as="geometry" />
        </mxCell>
        <mxCell id="WcB3qR7SCc_YL2CJhBid-27" style="edgeStyle=orthogonalEdgeStyle;rounded=0;orthogonalLoop=1;jettySize=auto;html=1;" parent="WcB3qR7SCc_YL2CJhBid-3" source="WcB3qR7SCc_YL2CJhBid-15" target="WcB3qR7SCc_YL2CJhBid-20" edge="1">
          <mxGeometry relative="1" as="geometry" />
        </mxCell>
        <mxCell id="WcB3qR7SCc_YL2CJhBid-15" value="Amazon Simple Queue Service" style="sketch=0;points=[[0,0,0],[0.25,0,0],[0.5,0,0],[0.75,0,0],[1,0,0],[0,1,0],[0.25,1,0],[0.5,1,0],[0.75,1,0],[1,1,0],[0,0.25,0],[0,0.5,0],[0,0.75,0],[1,0.25,0],[1,0.5,0],[1,0.75,0]];outlineConnect=0;fontColor=#232F3E;fillColor=#E7157B;strokeColor=#ffffff;dashed=0;verticalLabelPosition=bottom;verticalAlign=top;align=center;html=1;fontSize=12;fontStyle=0;aspect=fixed;shape=mxgraph.aws4.resourceIcon;resIcon=mxgraph.aws4.sqs;movable=1;resizable=1;rotatable=1;deletable=1;editable=1;locked=0;connectable=1;" parent="WcB3qR7SCc_YL2CJhBid-3" vertex="1">
          <mxGeometry x="60" y="234" width="78" height="78" as="geometry" />
        </mxCell>
        <mxCell id="WcB3qR7SCc_YL2CJhBid-25" style="edgeStyle=orthogonalEdgeStyle;rounded=0;orthogonalLoop=1;jettySize=auto;html=1;" parent="WcB3qR7SCc_YL2CJhBid-3" source="WcB3qR7SCc_YL2CJhBid-18" target="WcB3qR7SCc_YL2CJhBid-19" edge="1">
          <mxGeometry relative="1" as="geometry" />
        </mxCell>
        <mxCell id="WcB3qR7SCc_YL2CJhBid-18" value="Amazon EventBridge" style="sketch=0;points=[[0,0,0],[0.25,0,0],[0.5,0,0],[0.75,0,0],[1,0,0],[0,1,0],[0.25,1,0],[0.5,1,0],[0.75,1,0],[1,1,0],[0,0.25,0],[0,0.5,0],[0,0.75,0],[1,0.25,0],[1,0.5,0],[1,0.75,0]];outlineConnect=0;fontColor=#232F3E;fillColor=#E7157B;strokeColor=#ffffff;dashed=0;verticalLabelPosition=bottom;verticalAlign=top;align=center;html=1;fontSize=12;fontStyle=0;aspect=fixed;shape=mxgraph.aws4.resourceIcon;resIcon=mxgraph.aws4.eventbridge;" parent="WcB3qR7SCc_YL2CJhBid-3" vertex="1">
          <mxGeometry x="590" y="46.89" width="78" height="78" as="geometry" />
        </mxCell>
        <mxCell id="WcB3qR7SCc_YL2CJhBid-26" value="Create Schedule" style="edgeStyle=orthogonalEdgeStyle;rounded=0;orthogonalLoop=1;jettySize=auto;html=1;" parent="WcB3qR7SCc_YL2CJhBid-3" source="WcB3qR7SCc_YL2CJhBid-19" target="WcB3qR7SCc_YL2CJhBid-5" edge="1">
          <mxGeometry relative="1" as="geometry" />
        </mxCell>
        <mxCell id="WcB3qR7SCc_YL2CJhBid-19" value="AWS Lambda&lt;br&gt;Scheduled Filter" style="outlineConnect=0;dashed=0;verticalLabelPosition=bottom;verticalAlign=top;align=center;html=1;shape=mxgraph.aws3.lambda_function;fillColor=#F58534;gradientColor=none;" parent="WcB3qR7SCc_YL2CJhBid-3" vertex="1">
          <mxGeometry x="295.5" y="49" width="69" height="72" as="geometry" />
        </mxCell>
        <mxCell id="WcB3qR7SCc_YL2CJhBid-28" value="query intersecting regions" style="edgeStyle=orthogonalEdgeStyle;rounded=0;orthogonalLoop=1;jettySize=auto;html=1;" parent="WcB3qR7SCc_YL2CJhBid-3" source="WcB3qR7SCc_YL2CJhBid-20" target="WcB3qR7SCc_YL2CJhBid-21" edge="1">
          <mxGeometry relative="1" as="geometry" />
        </mxCell>
        <mxCell id="WcB3qR7SCc_YL2CJhBid-29" style="edgeStyle=orthogonalEdgeStyle;rounded=0;orthogonalLoop=1;jettySize=auto;html=1;" parent="WcB3qR7SCc_YL2CJhBid-3" source="WcB3qR7SCc_YL2CJhBid-20" target="WcB3qR7SCc_YL2CJhBid-7" edge="1">
          <mxGeometry relative="1" as="geometry" />
        </mxCell>
        <mxCell id="WcB3qR7SCc_YL2CJhBid-32" value="trigger&amp;nbsp; new scene processing" style="edgeLabel;html=1;align=center;verticalAlign=middle;resizable=0;points=[];" parent="WcB3qR7SCc_YL2CJhBid-29" vertex="1" connectable="0">
          <mxGeometry x="0.1466" relative="1" as="geometry">
            <mxPoint as="offset" />
          </mxGeometry>
        </mxCell>
        <mxCell id="WcB3qR7SCc_YL2CJhBid-20" value="AWS Lambda&lt;br&gt;New Scene Filter" style="outlineConnect=0;dashed=0;verticalLabelPosition=bottom;verticalAlign=top;align=center;html=1;shape=mxgraph.aws3.lambda_function;fillColor=#F58534;gradientColor=none;" parent="WcB3qR7SCc_YL2CJhBid-3" vertex="1">
          <mxGeometry x="295.5" y="237" width="69" height="72" as="geometry" />
        </mxCell>
        <mxCell id="WcB3qR7SCc_YL2CJhBid-21" value="Stac Server" style="shape=module;align=left;spacingLeft=20;align=center;verticalAlign=top;whiteSpace=wrap;html=1;" parent="WcB3qR7SCc_YL2CJhBid-3" vertex="1">
          <mxGeometry x="280" y="440" width="100" height="50" as="geometry" />
        </mxCell>
        <mxCell id="WcB3qR7SCc_YL2CJhBid-24" style="edgeStyle=orthogonalEdgeStyle;rounded=0;orthogonalLoop=1;jettySize=auto;html=1;" parent="WcB3qR7SCc_YL2CJhBid-3" source="WcB3qR7SCc_YL2CJhBid-22" target="WcB3qR7SCc_YL2CJhBid-18" edge="1">
          <mxGeometry relative="1" as="geometry" />
        </mxCell>
        <mxCell id="WcB3qR7SCc_YL2CJhBid-22" value="Regions&lt;br&gt;Module" style="shape=module;align=left;spacingLeft=20;align=center;verticalAlign=top;whiteSpace=wrap;html=1;" parent="WcB3qR7SCc_YL2CJhBid-3" vertex="1">
          <mxGeometry x="730" y="60.89" width="100" height="50" as="geometry" />
        </mxCell>
        <mxCell id="WcB3qR7SCc_YL2CJhBid-33" value="Engine&lt;br&gt;Module" style="shape=module;align=left;spacingLeft=20;align=center;verticalAlign=top;whiteSpace=wrap;html=1;" parent="WcB3qR7SCc_YL2CJhBid-3" vertex="1">
          <mxGeometry x="730" y="248.89" width="100" height="50" as="geometry" />
        </mxCell>
        <mxCell id="WcB3qR7SCc_YL2CJhBid-13" value="Element84 Account" style="points=[[0,0],[0.25,0],[0.5,0],[0.75,0],[1,0],[1,0.25],[1,0.5],[1,0.75],[1,1],[0.75,1],[0.5,1],[0.25,1],[0,1],[0,0.75],[0,0.5],[0,0.25]];outlineConnect=0;gradientColor=none;html=1;whiteSpace=wrap;fontSize=12;fontStyle=0;container=1;pointerEvents=0;collapsible=0;recursiveResize=0;shape=mxgraph.aws4.group;grIcon=mxgraph.aws4.group_aws_cloud_alt;strokeColor=#232F3E;fillColor=none;verticalAlign=top;align=left;spacingLeft=30;fontColor=#232F3E;dashed=0;" parent="1" vertex="1">
          <mxGeometry x="-180" y="373" width="300" height="300" as="geometry" />
        </mxCell>
        <mxCell id="WcB3qR7SCc_YL2CJhBid-16" value="Region" style="points=[[0,0],[0.25,0],[0.5,0],[0.75,0],[1,0],[1,0.25],[1,0.5],[1,0.75],[1,1],[0.75,1],[0.5,1],[0.25,1],[0,1],[0,0.75],[0,0.5],[0,0.25]];outlineConnect=0;gradientColor=none;html=1;whiteSpace=wrap;fontSize=12;fontStyle=0;container=1;pointerEvents=0;collapsible=0;recursiveResize=0;shape=mxgraph.aws4.group;grIcon=mxgraph.aws4.group_region;strokeColor=#147EBA;fillColor=none;verticalAlign=top;align=left;spacingLeft=30;fontColor=#147EBA;dashed=1;" parent="WcB3qR7SCc_YL2CJhBid-13" vertex="1">
          <mxGeometry x="50" y="36" width="200" height="244" as="geometry" />
        </mxCell>
        <mxCell id="WcB3qR7SCc_YL2CJhBid-17" value="Amazon Simple Notification Service&lt;br&gt;Sentinel Topic" style="sketch=0;points=[[0,0,0],[0.25,0,0],[0.5,0,0],[0.75,0,0],[1,0,0],[0,1,0],[0.25,1,0],[0.5,1,0],[0.75,1,0],[1,1,0],[0,0.25,0],[0,0.5,0],[0,0.75,0],[1,0.25,0],[1,0.5,0],[1,0.75,0]];outlineConnect=0;fontColor=#232F3E;fillColor=#E7157B;strokeColor=#ffffff;dashed=0;verticalLabelPosition=bottom;verticalAlign=top;align=center;html=1;fontSize=12;fontStyle=0;aspect=fixed;shape=mxgraph.aws4.resourceIcon;resIcon=mxgraph.aws4.sns;" parent="WcB3qR7SCc_YL2CJhBid-16" vertex="1">
          <mxGeometry x="61" y="65" width="78" height="78" as="geometry" />
        </mxCell>
        <mxCell id="WcB3qR7SCc_YL2CJhBid-23" value="New Satellite Image" style="edgeStyle=orthogonalEdgeStyle;rounded=0;orthogonalLoop=1;jettySize=auto;html=1;" parent="1" source="WcB3qR7SCc_YL2CJhBid-17" target="WcB3qR7SCc_YL2CJhBid-15" edge="1">
          <mxGeometry relative="1" as="geometry" />
        </mxCell>
      </root>
    </mxGraphModel>
  </diagram>
</mxfile>
